<?xml version="1.0" encoding="UTF-8"?>
<!-- Generated by Pixelmator Pro 3.6.18 -->
<svg width="100" height="100" viewBox="0 0 100 100" xmlns="http://www.w3.org/2000/svg">
    <radialGradient id="radialGradient1" cx="50.365483" cy="49.964039" r="37.005271" fx="50.365483" fy="49.964039" gradientUnits="userSpaceOnUse">
        <stop offset="0" stop-color="#0495a0" stop-opacity="1"/>
        <stop offset="1" stop-color="#05b6be" stop-opacity="1"/>
    </radialGradient>
    <path id="Path" fill="url(#radialGradient1)" stroke="none" d="M 43.9375 12.734375 C 45.403164 12.730507 45.403164 12.730507 46.898438 12.726563 C 47.921951 12.734299 48.945469 12.742035 50 12.75 C 51.023514 12.742264 52.047031 12.734528 53.101563 12.726563 C 54.078671 12.729141 55.055782 12.73172 56.0625 12.734375 C 56.960976 12.736633 57.859451 12.738884 58.785156 12.741211 C 61 13 61 13 63 15 C 63.125 18.125 63.125 18.125 63 21 C 63.952618 21.002579 64.905235 21.005157 65.886719 21.007813 C 75.836975 21.314606 75.836975 21.314606 78.902344 23.121094 C 80.125 24.5625 80.125 24.5625 82 28 C 82.373825 28.625198 82.747658 29.250389 83.132813 29.894531 C 85.773262 34.575325 86.618752 38.66251 87 44 C 85.349998 44.66 83.699997 45.32 82 46 C 82 48.639999 82 51.279999 82 54 C 83.650002 54.66 85.300003 55.32 87 56 C 86.840057 64.316925 82.886169 72.113831 77 78 C 74.634903 78.300598 72.255585 78.495148 69.875 78.625 C 67.953011 78.737152 67.953011 78.737152 65.992188 78.851563 C 65.004768 78.900543 64.017342 78.949532 63 79 C 63.041252 79.948753 63.0825 80.897499 63.125 81.875 C 63 85 63 85 61 87 C 58.785156 87.258789 58.785156 87.258789 56.0625 87.265625 C 55.085392 87.268204 54.10828 87.270782 53.101563 87.273438 C 52.078049 87.265701 51.054531 87.257965 50 87.25 C 48.976486 87.257736 47.952969 87.265472 46.898438 87.273438 C 45.921329 87.270859 44.944218 87.26828 43.9375 87.265625 C 43.039024 87.263367 42.140549 87.261116 41.214844 87.258789 C 39 87 39 87 37 85 C 36.875 81.875 36.875 81.875 37 79 C 36.047382 78.997421 35.094765 78.994843 34.113281 78.992188 C 24.163025 78.685394 24.163025 78.685394 21.097656 76.878906 C 19.875 75.4375 19.875 75.4375 18 72 C 17.626171 71.374802 17.252344 70.749611 16.867188 70.105469 C 14.226738 65.424675 13.381248 61.33749 13 56 C 14.65 55.34 16.299999 54.68 18 54 C 18 51.360001 18 48.720001 18 46 C 16.35 45.34 14.700001 44.68 13 44 C 13.159941 35.683075 17.113834 27.886169 23 22 C 25.365093 21.699402 27.744419 21.504852 30.125 21.375 C 31.406328 21.300232 32.687656 21.225471 34.007813 21.148438 C 35.488945 21.074959 35.488945 21.074959 37 21 C 36.958748 20.051247 36.9175 19.102501 36.875 18.125 C 37.084496 12.887558 39.293182 12.746033 43.9375 12.734375 Z M 54 32 C 53.557911 37.806095 54.617336 40.879509 57.75 45.75 C 58.446095 46.858593 59.142189 47.967186 59.859375 49.109375 C 61.775917 51.697407 63.255882 53.362755 66 55 C 66.660004 55 67.32 55 68 55 C 68.307571 49.156197 68.026138 45.20118 65 40 C 61.686356 36.541382 58.583801 33.527931 54 32 Z M 37 37 C 32.436695 42.919968 31.858524 46.643291 32 54 C 36.079643 52.698448 36.079643 52.698448 40 51 C 41.054409 48.920208 41.054409 48.920208 42 46.5 C 43.777779 42.111111 43.777779 42.111111 46 41 C 46 38.360001 46 35.720001 46 33 C 41.874725 33 40.234955 34.491257 37 37 Z M 48 48 C 48 49.32 48 50.639999 48 52 C 49.32 52 50.639999 52 52 52 C 52 50.68 52 49.360001 52 48 C 50.68 48 49.360001 48 48 48 Z M 40 59 C 39.34 60.32 38.68 61.639999 38 63 C 42.701023 66.93869 45.703793 68.295319 51.9375 68.226563 C 56.24044 67.753891 59.482521 65.344986 63 63 C 63 62.34 63 61.68 63 61 C 59.795937 58.863956 59.00399 58.757912 55.332031 58.804688 C 54.439354 58.811134 53.54668 58.817577 52.626953 58.824219 C 51.698185 58.840977 50.769413 58.857735 49.8125 58.875 C 48.872128 58.884022 47.931759 58.893047 46.962891 58.902344 C 44.64167 58.925911 42.320965 58.958809 40 59 Z"/>
</svg>
